#!OML:ASF \\sashay\E\basketball\basketball\Project 1\Capture day 1\Session 1\Subject.ASF
:FULLY-SPECIFIED
:DEGREES
100
root -7.69003 16.1378 4.10382 338.425 74.6317 -29.8441
lowerback 14.3969 0.374069 -1.99644
upperback 10.0879 0.865069 -3.69723
thorax 2.64818 0.687082 -2.84568
lowerneck -2.66046 10.5841 -10.2094
upperneck -0.339581 14.3714 2.50146
head -0.615615 7.19882 2.41553
rclavicle -2.22639e-014 -7.95139e-015
rhumerus -0.562916 22.2046 -77.312
rradius 118.541
rwrist -26.1383
rhand -25.1043 48.2648
rfingers 7.12502
rthumb 1.41081 18.2897
lclavicle -2.22639e-014 -7.95139e-015
lhumerus 25.6647 -37.831 55.74
lradius 110.187
lwrist 35.4688
lhand -29.6435 28.3127
lfingers 7.12502
lthumb -2.97314 58.2718
rfemur -12.5555 -11.317 6.89327
rtibia 62.7023
rfoot 6.54165 -9.04143
rtoes -31.5488
lfemur -30.3898 35.1809 -26.8274
ltibia 34.7714
lfoot -18.4709 18.0615
ltoes -1.63236
101
root -7.76905 16.1391 4.10455 339.901 73.622 -28.5113
lowerback 14.1531 0.547714 -1.85182
upperback 10.1138 1.1193 -3.9424
thorax 2.82448 0.829148 -3.21106
lowerneck -2.97105 10.3841 -9.97615
upperneck -0.302569 14.1405 2.76717
head -0.539775 7.08762 2.49134
rclavicle -2.54444e-014 -6.36111e-015
rhumerus -1.40548 22.2277 -77.2303
rradius 118.73
rwrist -26.0047
rhand -25.2736 49.1321
rfingers 7.12502
rthumb 1.24736 19.156
lclavicle -2.54444e-014 -6.36111e-015
lhumerus 25.5509 -38.9272 55.0553
lradius 110.201
lwrist 35.369
lhand -30.3653 27.8644
lfingers 7.12502
lthumb -3.67024 57.8126
rfemur -10.9367 -11.4061 6.31002
rtibia 61.174
rfoot 6.26902 -8.76253
rtoes -30.0473
lfemur -31.15 35.938 -26.9877
ltibia 34.9995
lfoot -18.0869 18.5107
ltoes -3.05616
102
root -7.8493 16.1414 4.10975 341.638 72.5892 -26.8738
lowerback 13.9701 0.645667 -2.19917
upperback 9.8672 1.1784 -3.91347
thorax 2.65175 0.826889 -2.98874
lowerneck -2.38131 10.6053 -10.1402
upperneck -0.526356 14.3693 2.65706
head -0.730806 7.20261 2.4291
rclavicle 1.27222e-014 5.88403e-014
rhumerus -2.69716 23.0212 -76.939
rradius 118.963
rwrist -26.0832
rhand -25.2594 49.1318
rfingers 7.12502
rthumb 1.26106 19.1557
lclavicle 1.27222e-014 5.88403e-014
lhumerus 24.1235 -39.9357 55.5137
lradius 110.187
lwrist 34.7628
lhand -31.2903 27.5209
lfingers 7.12502
lthumb -4.56342 57.4517
rfemur -9.42532 -11.3738 5.68605
rtibia 59.5388
rfoot 7.10236 -8.80407
rtoes -24.521
lfemur -31.9124 36.6785 -27.2049
ltibia 35.38
lfoot -17.9253 18.8152
ltoes -3.73313
103
root -7.93147 16.1351 4.11831 342.664 71.4804 -25.9199
lowerback 14.5582 1.05826 -3.32529
upperback 9.31121 1.48091 -3.0193
thorax 1.70435 0.8798 -1.47106
lowerneck -2.56393 10.6493 -11.3559
upperneck 0.144557 14.4687 2.67145
head -0.5861 7.23024 2.66241
rclavicle 2.06736e-014 -2.38542e-014
rhumerus -4.43058 23.994 -75.456
rradius 119.347
rwrist -26.5191
rhand -25.5388 48.237
rfingers 7.12502
rthumb 0.99115 18.2595
lclavicle 2.06736e-014 -2.38542e-014
lhumerus 21.8269 -41.0364 57.8736
lradius 110.177
lwrist 34.4071
lhand -31.9978 27.1229
lfingers 7.12502
lthumb -5.24662 57.038
rfemur -7.95653 -11.5052 5.40342
rtibia 57.7153
rfoot 7.8669 -7.70434
rtoes -29.4857
lfemur -32.6793 37.4699 -27.1856
ltibia 35.854
lfoot -17.8364 19.0346
ltoes -3.93078
104
root -8.01532 16.124 4.12864 343.261 70.3744 -25.4866
lowerback 13.8343 0.990216 -1.80155
upperback 9.61357 1.64351 -4.30548
thorax 2.49413 1.08084 -3.67913
lowerneck -2.72816 10.6663 -10.0633
upperneck -0.459506 14.4988 3.19618
head -0.698527 7.27252 2.60929
rclavicle -9.54166e-015 -1.43125e-014
rhumerus -5.29192 23.364 -77.2333
rradius 119.338
rwrist -26.0291
rhand -25.44 48.7405
rfingers 7.12502
rthumb 1.0866 18.7635
lclavicle -9.54166e-015 -1.43125e-014
lhumerus 22.7002 -42.0842 54.8288
lradius 110.283
lwrist 35.4337
lhand -32.0569 26.8074
lfingers 7.12502
lthumb -5.30363 56.7211
rfemur -6.55756 -11.7391 5.36082
rtibia 55.7339
rfoot 9.11397 -6.1196
rtoes -36.824
lfemur -33.5768 38.279 -27.0766
ltibia 36.3929
lfoot -17.9591 19.0171
ltoes -2.74845
